PathFileType	4	(X/Y/Z)	..\data\2014007\dynamic\2014007_C5_04.trc
DataRate	CameraRate	NumFrames	NumMarkers	Units	OrigDataRate	OrigDataStartFrame	OrigNumFrames
100.000000	100.000000	4	52	mm	100.000000	98	157
Frame#	Time	L_IAS			L_IPS			R_IPS			R_IAS			L_FTC			L_FLE			L_FME			L_FAX			L_TTC			L_FAL			L_TAM			L_FCC			L_FM1			L_FM2			L_FM5			R_FTC			R_FLE			R_FME			R_FAX			R_TTC			R_FAL			R_TAM			R_FCC			R_FM1			R_FM2			R_FM5			CV7			TV10			SXS			SJN			L_SIA			L_SRS			L_SAA			L_SAE			L_HLE			L_HME			L_UOA			L_RSP			L_UHE			L_HM2			L_HM5			R_SIA			R_SRS			R_SAA			R_SAE			R_HLE			R_HME			R_UOA			R_RSP			R_UHE			R_HM2			R_HM5			
		X1	Y1	Z1	X2	Y2	Z2	X3	Y3	Z3	X4	Y4	Z4	X5	Y5	Z5	X6	Y6	Z6	X7	Y7	Z7	X8	Y8	Z8	X9	Y9	Z9	X10	Y10	Z10	X11	Y11	Z11	X12	Y12	Z12	X13	Y13	Z13	X14	Y14	Z14	X15	Y15	Z15	X16	Y16	Z16	X17	Y17	Z17	X18	Y18	Z18	X19	Y19	Z19	X20	Y20	Z20	X21	Y21	Z21	X22	Y22	Z22	X23	Y23	Z23	X24	Y24	Z24	X25	Y25	Z25	X26	Y26	Z26	X27	Y27	Z27	X28	Y28	Z28	X29	Y29	Z29	X30	Y30	Z30	X31	Y31	Z31	X32	Y32	Z32	X33	Y33	Z33	X34	Y34	Z34	X35	Y35	Z35	X36	Y36	Z36	X37	Y37	Z37	X38	Y38	Z38	X39	Y39	Z39	X40	Y40	Z40	X41	Y41	Z41	X42	Y42	Z42	X43	Y43	Z43	X44	Y44	Z44	X45	Y45	Z45	X46	Y46	Z46	X47	Y47	Z47	X48	Y48	Z48	X49	Y49	Z49	X50	Y50	Z50	X51	Y51	Z51	X52	Y52	Z52	

99	0.98	70.02149963378906	892.601501464844	133.4823303222657	-129.4084625244141	969.9238281250002	205.5678100585938	-128.4882965087891	980.206726074219	286.3597412109376	57.16070938110348	916.601501464844	390.7571716308595	15.66519260406494	866.0596313476565	65.57497406005861	158.6741333007813	469.8581848144532	109.2630386352539	156.2481842041016	448.0628967285157	232.1170349121095	166.2431030273438	407.3269653320314	103.7800445556641	220.3350677490235	415.670379638672	162.9237518310547	282.0606384277344	77.76210021972658	121.0930252075196	295.2891540527344	103.6100616455078	200.1844482421876	253.8593444824219	21.17980384826661	171.8980560302735	424.2473144531251	99.85307312011722	189.6358337402345	417.9327697753907	112.1495742797852	141.673080444336	396.4950256347657	79.30404663085939	100.2162857055665	-18.540605545044	865.9199829101565	447.443084716797	-106.1103973388673	459.6443481445314	367.9091491699219	-129.1394195556641	472.4874877929689	235.6454162597657	-148.3262329101563	400.0294189453126	365.4596557617188	-97.66674804687507	384.5879211425782	306.2796936035157	-261.9577026367189	67.52380371093751	312.0096130371094	-246.0178222656251	94.20667266845705	227.8783874511719	-319.9384155273439	40.54863357543946	260.2796020507812	-135.0340270996094	25.48519325256348	227.5999755859375	-122.8081054687501	39.17347717285157	279.1150512695313	-162.8336944580079	25.58560371398926	330.4022521972657	-74.42609405517582	1415.701171875	241.1453857421876	-126.8866195678712	1181.785522460938	255.5001220703125	117.7566528320312	1158.046875	232.0339813232423	51.72509002685545	1333.861328125	230.2767028808594	-148.2490997314454	1197.817260742188	167.0610198974609	-122.1744232177735	1337.912475585938	164.9307250976562	-99.42645263671879	1340.67236328125	91.86988830566406	-52.89719009399416	1343.313110351563	57.51353454589844	-174.7881469726563	1046.84521484375	23.32243347167967	-173.5688781738282	1035.515258789063	103.2144546508789	-197.2996673583985	1040.019165039063	59.8201675415039	-174.6360931396485	788.5518188476565	21.66516876220701	-230.4602203369141	813.8938598632815	-23.56510925292972	-186.0113677978516	695.9826660156251	2.797044515609719	-275.4956665039063	742.4254760742189	-17.05662727355961	-135.5606079101563	1209.725952148438	355.0467834472657	-108.1527557373048	1337.859741210938	345.8759765625001	-55.04110717773444	1359.391845703125	407.0392150878907	-9.188231468200737	1362.954467773438	422.6822814941407	22.60134696960443	1055.792236328125	533.1945800781251	-30.32304763793952	1031.446411132813	468.1607971191407	-14.37635231018073	1015.728820800781	518.8851928710939	189.085220336914	862.6204833984377	461.0337829589845	159.0592956542968	846.1188964843752	531.5925903320314	242.7209014892578	800.8936157226565	451.9396972656252	189.1934051513672	775.8134765625002	532.2564086914064	
100	0.99	84.40543365478516	889.6170043945315	132.9486083984375	-115.4094543457032	966.8291015625002	203.9188232421876	-114.7103805541993	977.3032836914065	284.6760253906251	70.56915283203122	914.135681152344	390.6940917968751	30.37878799438477	862.8255615234377	64.87220764160158	175.4298553466797	468.2325744628907	109.861183166504	172.2530822753906	446.4556274414064	232.8483276367188	183.6178283691407	405.7905578613282	104.5300292968751	237.3435516357422	414.8735656738282	164.1314697265626	303.2375183105469	77.4889602661133	122.6517715454102	315.6727905273438	103.4743804931641	201.8296356201173	275.1474914550782	20.44926643371582	173.1909942626954	444.7214355468751	101.4108047485352	192.2512207031251	438.700897216797	113.4727783203125	144.2810211181641	417.7950439453126	80.24542236328126	102.7976837158204	-5.910054683685359	863.8450927734377	446.8096923828126	-98.5494689941407	459.009002685547	368.2369689941407	-119.7691802978516	471.6699218750001	235.6046752929688	-141.7096099853516	399.9772338867189	365.5573120117188	-90.87434387207037	383.3684997558594	306.8874816894532	-261.3320617675782	68.99780273437501	312.5354614257812	-244.6843261718751	95.66815185546876	228.4185485839844	-319.8397827148439	43.2122917175293	260.5832214355469	-134.7640075683594	25.72292518615723	227.9262847900391	-122.4256744384766	39.2647819519043	279.5420837402344	-162.6647033691407	25.60696029663087	330.6246948242188	-60.89979171752934	1412.90087890625	240.5316619873047	-113.2808990478516	1179.033569335938	254.4639129638672	131.3726959228516	1155.008056640625	231.5445251464845	65.4214401245117	1331.093383789063	229.6318054199219	-134.6734008789063	1195.132934570313	166.2993316650391	-108.5113677978516	1335.326171875	164.2432708740235	-85.70726013183597	1338.231201171875	91.23915100097656	-39.13014602661134	1340.883544921875	56.81698608398438	-164.7083435058594	1046.115478515625	23.74837875366209	-163.1141815185547	1034.9052734375	103.5602188110352	-186.983154296875	1039.884155273438	60.35346984863281	-170.2164154052735	788.0589599609377	22.61813545227049	-225.7054595947266	814.529235839844	-22.35379981994632	-184.1741943359375	695.6908569335939	4.547847270965555	-272.5742797851563	744.2749633789064	-15.18039035797123	-122.098487854004	1206.75146484375	353.9377136230469	-94.73815917968756	1334.983642578125	345.1318969726563	-41.60521316528326	1356.3525390625	406.4168090820314	4.298310756683299	1359.9169921875	422.0399169921876	37.07919311523432	1052.470336914063	531.4791259765626	-15.31226634979254	1027.9814453125	466.0645751953126	0.4437707662581766	1012.300170898438	516.8242797851564	204.2619171142578	859.7139892578127	459.3777160644532	174.3320617675781	843.3076171875002	530.0031738281251	258.1285705566406	798.1968994140627	450.5520935058595	204.7671813964844	773.2426757812502	530.9747314453126	
101	1	98.97013092041017	887.0183105468752	132.3720855712891	-101.2416610717774	963.9107666015627	202.4350280761719	-100.6484832763672	974.5190429687502	283.1355285644532	84.26617431640622	911.7502441406252	390.561004638672	45.16780471801758	859.931823730469	64.18391418457033	193.0025177001954	467.1021118164064	110.610954284668	189.1002197265625	445.4190063476564	233.6336212158204	201.3186492919922	404.5536193847657	105.4237747192383	254.5178527832032	413.9276123046876	165.5260467529297	321.2727661132813	76.72145080566408	124.3574752807618	332.9882812500001	102.6446151733399	203.6998443603516	292.6458740234376	19.66102027893067	174.5219421386719	461.948699951172	100.9209976196289	195.1547851562501	456.381317138672	112.8947067260742	147.1770782470704	435.788543701172	79.60565185546876	105.6937179565431	7.063321113586372	861.8007812500002	446.1204833984376	-90.64343261718756	458.4897766113282	368.5408630371094	-110.0633010864258	470.8920288085939	235.5528717041016	-134.8059539794923	400.0906677246095	365.6358947753907	-83.77369689941412	382.2351989746094	307.4819946289063	-260.6342163085939	70.77614593505861	313.1347045898438	-243.2085113525391	97.36903381347659	229.0558166503907	-319.7023315429689	46.31706237792969	260.9344177246094	-134.5000915527344	25.90536117553712	228.2441101074219	-122.0324096679688	39.32609176635743	279.9575500488282	-162.5293426513672	25.55747222900391	330.8201293945313	-47.32912063598636	1410.221435546875	239.8560638427735	-99.52556610107428	1176.383666992188	253.4550476074219	145.1331024169922	1152.223388671875	230.9016113281251	79.18624114990233	1328.484497070313	228.8763885498047	-120.962646484375	1192.541748046875	165.5009918212891	-94.77277374267581	1332.806762695313	163.4898071289063	-71.94293975830081	1335.865844726563	90.53130340576172	-25.33136558532716	1338.542602539063	56.03647613525392	-154.1832885742188	1045.377075195313	23.9764938354492	-152.2326354980469	1034.2548828125	103.7465209960938	-176.2392578125	1039.697875976563	60.67913818359374	-164.9165954589844	787.624938964844	23.52799415588377	-220.0109558105469	815.1087646484377	-21.31035614013675	-181.4292297363282	695.4954223632814	6.404395580291728	-268.6309509277344	746.1038818359376	-13.49822902679447	-108.495216369629	1203.871215820313	352.7832031250001	-81.22461700439459	1332.2099609375	344.3025512695313	-28.08274650573736	1353.442260742188	405.7108459472657	17.871747970581	1357.012329101563	421.3157043457032	51.41654586791987	1049.244262695313	529.6722412109376	-0.4895614683628651	1024.68017578125	463.8862304687501	15.03691673278803	1009.021057128906	514.6532592773439	219.0685119628906	856.6358032226565	457.7473449707032	189.1813049316406	840.4002075195315	528.4385986328126	273.11669921875	795.2749633789065	449.2533569335939	219.8371887207031	770.539489746094	529.7669067382814	
102	1.01	113.7412796020508	884.8496704101565	131.7393035888672	-86.88714599609379	961.2195434570315	201.1275177001954	-86.29063415527348	971.9014892578127	281.7554321289063	98.2708053588867	909.4451904296877	390.3468322753907	60.06010437011719	857.440856933594	63.50149917602541	211.2927398681641	466.4529724121095	111.5040893554688	206.653549194336	444.9317321777345	234.4596252441407	219.299301147461	403.6192016601564	106.4434509277344	271.8116149902344	412.8582153320314	167.0913391113282	336.3503112792969	75.46055603027345	126.1491622924805	347.4020080566407	101.1242065429688	205.7356262207032	306.5483703613282	18.81346511840821	175.8175201416016	476.1284790039064	98.38990783691409	198.3060760498048	471.1759338378907	110.4239959716797	150.3222045898438	450.6798706054689	77.39825439453126	108.8384246826173	20.40928459167475	859.8034667968752	445.3723144531251	-82.26844024658209	458.0755310058595	368.8192443847657	-99.93186950683599	470.1318664550782	235.5117340087891	-127.508529663086	400.3677368164064	365.7067871093751	-76.26828765869146	381.1680603027344	308.0674133300782	-259.816131591797	72.91225433349611	313.8101196289062	-241.5331268310548	99.33573150634768	229.7960052490235	-319.4501953125001	49.9455909729004	261.3354187011719	-134.2902832031251	26.01487350463868	228.5298614501953	-121.6749420166016	39.32513046264649	280.3280334472657	-162.4608154296876	25.42216682434083	330.9681396484376	-33.70853042602543	1407.70361328125	239.1108398437501	-85.60850524902348	1173.87451171875	252.4801635742188	159.0651550292969	1149.749145507813	230.0991363525391	93.02195739746092	1326.088989257813	228.013168334961	-107.0958328247071	1190.06689453125	164.6824340820313	-80.95954895019534	1330.385620117188	162.6824035644532	-58.14418792724612	1333.60693359375	89.75611877441406	-11.51446533203126	1336.326538085938	55.18017578125001	-143.2062225341797	1044.646606445313	24.00245285034179	-140.9188537597657	1033.579223632813	103.7732009887695	-165.0703735351563	1039.476684570313	60.78910064697265	-158.6956481933594	787.2354736328127	24.38195228576659	-213.3262023925782	815.6082763671877	-20.45930671691897	-177.722152709961	695.3703002929689	8.350933074951152	-263.6086120605469	747.8771972656251	-12.04645633697513	-94.73558044433599	1201.1259765625	351.5892333984376	-67.60749053955084	1329.5810546875	343.3910522460938	-14.46922874450689	1350.707153320313	404.9222717285157	31.53334808349605	1354.28955078125	420.5139160156251	65.61660766601557	1046.166625976563	527.7870483398439	14.12464046478266	1021.5986328125	461.6614990234376	29.39296340942377	1005.948913574219	512.3994750976564	233.4872283935547	853.4329223632815	456.155242919922	203.5767517089844	837.4291992187502	526.9024047851564	287.6617126464844	792.1706542968752	448.0428466796877	234.3609924316406	767.7257690429689	528.6146240234376	
